<svg width="32" height="32" viewBox="0 0 32 32" fill="none" xmlns="http://www.w3.org/2000/svg">
<path d="M9.2884 20.8273L10.3092 18.0441H14.4123L15.4331 20.8273H16.7215L12.995 11H11.7264L8 20.8273H9.2884ZM10.6957 16.9885L12.3211 12.5547H12.4004L14.0257 16.9885H10.6957Z" fill="#000"/>
<path d="M20.5114 21C21.8395 21 22.5332 20.309 22.7711 19.8292H22.8305V20.8273H24V15.9712C24 13.6296 22.1566 13.3608 21.1853 13.3608C20.0357 13.3608 18.7275 13.7447 18.1328 15.0883L19.2428 15.4722C19.5005 14.9347 20.11 14.3589 21.225 14.3589C22.3003 14.3589 22.8305 14.9107 22.8305 15.856V15.8944C22.8305 16.4415 22.2557 16.3935 20.8682 16.5662C19.4559 16.7438 17.9148 17.0461 17.9148 18.7351C17.9148 20.1747 19.0644 21 20.5114 21ZM20.6898 19.9827C19.7582 19.9827 19.0843 19.5797 19.0843 18.7927C19.0843 17.929 19.8969 17.6603 20.8087 17.5451C21.3043 17.4875 22.6323 17.3532 22.8305 17.1228V18.1593C22.8305 19.0806 22.0773 19.9827 20.6898 19.9827Z" fill="#000"/>
</svg>
