<svg width="32" height="32" viewBox="0 0 32 32" fill="none" xmlns="http://www.w3.org/2000/svg">
<path d="M21.8494 11.3276H23.0176V20.6739H21.8494V11.3276ZM19.7756 16.4529C19.6845 16.1036 19.5431 15.7963 19.3551 15.5346C19.167 15.2729 18.9286 15.0661 18.6436 14.9154C18.3585 14.7647 18.0197 14.6899 17.6318 14.6899C17.4005 14.6899 17.1879 14.718 16.9928 14.7752C16.806 14.8297 16.6277 14.9103 16.4635 15.0147C16.3046 15.1179 16.1611 15.243 16.0371 15.3862L15.828 15.6877V12.0029H14.7847V20.6739H15.828V20.0022L15.9752 20.2066C16.0768 20.3258 16.196 20.4286 16.3303 20.5209C16.467 20.612 16.6212 20.6844 16.7953 20.7382C16.9694 20.7919 17.1622 20.8176 17.3771 20.8176C17.7895 20.8176 18.1552 20.7347 18.4718 20.5699C18.7896 20.4029 19.0548 20.1751 19.2686 19.8853C19.4824 19.5933 19.6436 19.2509 19.7523 18.8584C19.8609 18.4635 19.9158 18.0371 19.9158 17.5768C19.9178 17.1977 19.8707 16.8198 19.7756 16.4529ZM18.0477 15.7437C18.2241 15.8267 18.3772 15.9494 18.5034 16.1106C18.6307 16.2741 18.73 16.4763 18.8013 16.7146C18.8609 16.9179 18.8971 17.148 18.9053 17.4004L18.8971 17.5464C18.8971 17.9284 18.8585 18.2707 18.7802 18.5617C18.716 18.8183 18.6059 19.0613 18.4555 19.279C18.3188 19.4682 18.1517 19.612 17.9636 19.7066C17.5874 19.8958 17.0757 19.9005 16.7147 19.7241C16.5405 19.64 16.3845 19.5226 16.2556 19.3783C16.1472 19.2507 16.061 19.1057 16.0009 18.9495C16.0009 18.9495 15.7918 18.4273 15.7918 17.8432C15.7918 17.259 16.0009 16.6725 16.0009 16.6725C16.0733 16.4657 16.1598 16.301 16.2626 16.1702C16.3958 16.0031 16.5617 15.8676 16.7579 15.7671C16.9542 15.6666 17.1844 15.6164 17.4437 15.6164C17.6657 15.6164 17.869 15.6596 18.0477 15.7437ZM7.81466 8.991H24.1859V10.1862H7.81466V8.991ZM7.81466 21.8048H24.1859V23H7.81466V21.8048ZM8.98763 20.7101L9.83814 18.3373H12.4306L13.3395 20.7101H14.6036L11.7004 12.3475H10.601L7.74924 20.626L7.72003 20.7101H8.98763ZM11.1221 14.1572H11.1478L12.2156 17.3735H10.0648L11.1221 14.1572Z" fill="#000"/>
</svg>
