<svg width="32" height="32" viewBox="0 0 32 32" fill="none" xmlns="http://www.w3.org/2000/svg">
<path d="M9.1936 21L10.1393 18.4512H13.9405L14.8862 21H16.0798L12.6275 12H11.4523L8 21H9.1936ZM10.4974 17.4844L12.0032 13.4238H12.0766L13.5824 17.4844H10.4974Z" fill="black"/>
<path d="M17.6627 21H21.0599C23.2818 21 24.2 19.9629 24.2 18.6094C24.2 17.1855 23.1717 16.4121 22.3086 16.3594V16.2715C23.1166 16.0605 23.8327 15.5508 23.8327 14.3906C23.8327 13.0723 22.9146 12 20.9497 12H17.6627V21ZM18.8012 20.0332V16.9043H21.115C22.3453 16.9043 23.1166 17.6953 23.1166 18.6094C23.1166 19.4004 22.5473 20.0332 21.0599 20.0332H18.8012ZM18.8012 15.9551V12.9668H20.9497C22.1984 12.9668 22.7493 13.5996 22.7493 14.3906C22.7493 15.3398 21.9413 15.9551 20.913 15.9551H18.8012Z" fill="black"/>
</svg>
